<svg xmlns="http://www.w3.org/2000/svg" width="400" height="400" viewBox="0 0 400 400">
  <path d="M191.3.27c-.715.099-1.3.349-1.3.555 0 .206-.535.375-1.189.375s-1.959.458-2.9 1.018c-.941.559-2.026 1.12-2.411 1.246-.385.126-.7.388-.7.583 0 .194-.32.353-.712.353-.391 0-.971.36-1.288.8-.317.44-.783.8-1.035.8-.617 0-4.965 4.207-4.965 4.805 0 .261-.54.978-1.2 1.595-.66.617-1.2 1.409-1.2 1.76 0 .352-.152.64-.337.64-.186 0-.771.855-1.3 1.9-.53 1.045-1.098 1.96-1.263 2.033-.165.074-.3.738-.3 1.477 0 .738-.18 1.454-.4 1.59-.22.136-.4.762-.4 1.39 0 .629-.192 1.207-.426 1.285-.588.196-.588 14.854 0 15.05.234.078.426.746.426 1.485 0 .738.18 1.454.4 1.59.22.136.4.777.4 1.424 0 .647.18 1.176.4 1.176.22 0 .4.236.4.525 0 .288.36.911.8 1.383.44.472.8 1.136.8 1.475 0 .339.18.617.4.617.22 0 .4.288.4.64 0 .351.54 1.143 1.2 1.76.66.617 1.2 1.337 1.2 1.6 0 .551 3.538 4 4.103 4 .207 0 .88.54 1.497 1.2.617.66 1.409 1.2 1.76 1.2.582 0 .64 3.773.64 41.92 0 44.946.099 42.88-2.056 42.88-.603 0-1.208.18-1.344.4-.136.22-.687.4-1.224.4-.537 0-.976.18-.976.4 0 .22-.54.4-1.2.4-.66 0-1.2.18-1.2.4 0 .22-.36.4-.8.4-.44 0-.8.18-.8.4 0 .22-.36.4-.8.4-.44 0-.8.18-.8.4 0 .22-.36.4-.8.4-.44 0-.8.18-.8.4 0 .22-.36.4-.8.4-.44 0-.8.18-.8.4 0 1.53-4.102-2.3-27.101-25.301C117.478 100.476 114.892 97.685 116 97c.237-.146.4-2.604.4-6.024 0-3.584-.152-5.776-.4-5.776-.22 0-.4-.72-.4-1.6 0-.88-.18-1.6-.4-1.6-.22 0-.4-.529-.4-1.176 0-.647-.18-1.288-.4-1.424-.22-.136-.4-.687-.4-1.224 0-.537-.18-.976-.4-.976-.22 0-.4-.36-.4-.8 0-.44-.18-.8-.4-.8-.22 0-.4-.36-.4-.8 0-.44-.18-.8-.4-.8-.22 0-.4-.284-.4-.631 0-.348-.72-1.323-1.6-2.169-.88-.846-1.6-1.686-1.6-1.869-.001-.552-1.86-2.531-2.378-2.531-.267 0-1.176-.72-2.022-1.6-.846-.88-1.806-1.6-2.135-1.6-.329 0-.658-.135-.732-.3-.167-.376-2.297-1.675-3.233-1.971-.385-.122-.7-.381-.7-.576 0-.194-.54-.353-1.2-.353-.66 0-1.2-.18-1.2-.4 0-.22-.72-.4-1.6-.4-.88 0-1.6-.18-1.6-.4 0-.228-1.192-.4-2.776-.4-1.527 0-2.888-.18-3.024-.4-.322-.521-4.078-.521-4.4 0-.136.22-1.497.4-3.024.4-1.584 0-2.776.172-2.776.4 0 .22-.54.4-1.2.4-.66 0-1.2.18-1.2.4 0 .22-.54.4-1.2.4-.66 0-1.2.18-1.2.4 0 .22-.36.4-.8.4-.44 0-.8.18-.8.4 0 .22-.36.4-.8.4-.44 0-.8.18-.8.4 0 .22-.32.4-.712.4-.391 0-.971.36-1.288.8-.317.44-.785.8-1.04.8s-1.205.72-2.112 1.6c-.907.88-1.834 1.6-2.061 1.6-.227 0-.53.315-.675.7-.145.385-.724 1.15-1.287 1.7-.564.55-1.28 1.495-1.593 2.1-.312.605-.717 1.1-.9 1.1-.182 0-.332.36-.332.8 0 .44-.18.8-.4.8-.22 0-.4.36-.4.8 0 .44-.18.8-.4.8-.22 0-.4.36-.4.8 0 .44-.18.8-.4.8-.22 0-.4.439-.4.976 0 .537-.18 1.088-.4 1.224-.22.136-.4.777-.4 1.424 0 .647-.18 1.176-.4 1.176-.225 0-.4 1.125-.4 2.576 0 1.417-.18 2.688-.4 2.824-.521.322-.521 5.278 0 5.6.22.136.4 1.497.4 3.024 0 1.584.172 2.776.4 2.776.22 0 .4.54.4 1.2 0 .66.18 1.2.4 1.2.22 0 .4.525.4 1.167 0 .641.135 1.226.3 1.3.165.073.733.988 1.263 2.033.529 1.045 1.114 1.9 1.3 1.9.185 0 .337.288.337.64 0 .351.54 1.143 1.2 1.76.66.617 1.2 1.337 1.2 1.6 0 .551 3.538 4 4.103 4 .207 0 .88.54 1.497 1.2.617.66 1.409 1.2 1.76 1.2.352 0 .64.18.64.4 0 .22.36.4.8.4.44 0 .8.18.8.4 0 .22.36.4.8.4.44 0 .8.18.8.4 0 .22.36.4.8.4.44 0 .8.18.8.4 0 .22.54.4 1.2.4.66 0 1.2.18 1.2.4 0 .22.72.4 1.6.4.88 0 1.6.18 1.6.4 0 .25 2.4.4 6.4.4s6.4-.15 6.4-.4c0-1.377 3.792 2.19 27.001 25.399C142.357 173.955 144.59 176.4 142.4 176.4c-.22 0-.4.36-.4.8 0 .44-.18.8-.4.8-.22 0-.4.36-.4.8 0 .44-.18.8-.4.8-.22 0-.4.36-.4.8 0 .44-.18.8-.4.8-.22 0-.4.54-.4 1.2 0 .66-.18 1.2-.4 1.2-.22 0-.4.439-.4.976 0 .537-.18 1.088-.4 1.224-.22.136-.4.699-.4 1.252 0 2.264 2.145 2.148-39.771 2.148-34.057 0-38.629-.071-38.629-.6 0-.329-.72-1.341-1.6-2.248-.88-.907-1.6-1.815-1.6-2.018 0-.49-1.462-1.917-3.2-3.124-.77-.535-1.691-1.296-2.047-1.691-.356-.395-.941-.719-1.3-.719-.359 0-.653-.18-.653-.4 0-.22-.36-.4-.8-.4-.44 0-.8-.18-.8-.4 0-.22-.225-.404-.5-.409-.275-.005-.95-.361-1.5-.791-.55-.43-1.585-.786-2.3-.791-.715-.005-1.3-.189-1.3-.409 0-.22-.54-.4-1.2-.4-.66 0-1.2-.18-1.2-.4 0-.253-2.8-.4-7.6-.4s-7.6.147-7.6.4c0 .22-.54.4-1.2.4-.66 0-1.2.18-1.2.4 0 .22-.585.404-1.3.409-.715.005-1.75.361-2.3.791-.55.43-1.225.786-1.5.791-.275.005-.5.189-.5.409 0 .22-.36.4-.8.4-.44 0-.8.18-.8.4 0 .22-.294.4-.653.4-.359 0-.944.324-1.3.719-.356.395-1.277 1.156-2.047 1.691-1.738 1.207-3.2 2.634-3.2 3.124 0 .203-.72 1.111-1.6 2.018-.88.907-1.6 1.919-1.6 2.248 0 .33-.18.6-.4.6-.22 0-.4.36-.4.8 0 .44-.18.8-.4.8-.22 0-.4.36-.4.8 0 .44-.18.8-.4.8-.22 0-.4.36-.4.8 0 .44-.18.8-.4.8-.22 0-.4.525-.4 1.167 0 .641-.225 1.241-.5 1.333-.382.127-.5 2.469-.5 9.9 0 7.431.118 9.773.5 9.9.275.092.5.566.5 1.054 0 1.027.859 3.038 1.3 3.043.165.002.3.363.3.803 0 .44.18.8.4.8.22 0 .4.36.4.8 0 .44.18.8.4.8.22 0 .4.27.4.6 0 .329.72 1.341 1.6 2.248.88.907 1.6 1.815 1.6 2.018 0 .481 1.853 2.334 2.334 2.334.203 0 1.111.72 2.018 1.6.907.88 1.919 1.6 2.248 1.6.33 0 .6.18.6.4 0 .22.36.4.8.4.44 0 .8.18.8.4 0 .22.225.404.5.409.275.005.95.361 1.5.791.55.43 1.585.786 2.3.791.715.005 1.3.189 1.3.409 0 .22.54.4 1.2.4.66 0 1.2.18 1.2.4 0 .253 2.8.4 7.6.4s7.6-.147 7.6-.4c0-.22.54-.4 1.2-.4.66 0 1.2-.18 1.2-.4 0-.22.585-.404 1.3-.409.715-.005 1.75-.361 2.3-.791.55-.43 1.225-.786 1.5-.791.275-.005.5-.189.5-.409 0-.22.36-.4.8-.4.44 0 .8-.18.8-.4 0-.22.27-.4.6-.4.329 0 1.341-.72 2.248-1.6.907-.88 1.815-1.6 2.018-1.6.481 0 2.334-1.853 2.334-2.334 0-.203.72-1.111 1.6-2.018.88-.907 1.6-1.842 1.6-2.077 0-1.593-.552-1.571 39.371-1.571 37.962 0 38.229.006 38.229.8 0 .44.18.8.4.8.22 0 .4.54.4 1.2 0 .66.18 1.2.4 1.2.22 0 .4.54.4 1.2 0 .66.18 1.2.4 1.2.22 0 .4.54.4 1.2 0 .66.18 1.2.4 1.2.22 0 .4.36.4.8 0 .44.18.8.4.8.22 0 .4.36.4.8 0 .44.18.8.4.8.22 0 .4.36.4.8 0 .44.18.8.4.8.22 0 .4.345.4.767 0 .421.214.838.476.925.261.087-11.203 11.836-25.475 26.109-14.273 14.272-26.022 25.736-26.109 25.475-.204-.613-15.292-.688-15.292-.076 0 .22-.54.4-1.2.4-.66 0-1.2.18-1.2.4 0 .22-.414.4-.92.4-1.054 0-3.072.853-3.077 1.3-.002.165-.363.3-.803.3-.44 0-.8.18-.8.4 0 .22-.36.4-.8.4-.44 0-.8.18-.8.4 0 .22-.27.4-.6.4-.329 0-1.341.72-2.248 1.6-.907.88-1.831 1.6-2.054 1.6-.459 0-2.297 2.025-2.298 2.531 0 .183-.72 1.023-1.6 1.869-.88.846-1.6 1.821-1.6 2.169 0 .347-.18.631-.4.631-.22 0-.4.36-.4.8 0 .44-.18.8-.4.8-.22 0-.4.36-.4.8 0 .44-.18.8-.4.8-.22 0-.4.36-.4.8 0 .44-.18.8-.4.8-.22 0-.4.529-.4 1.176 0 .647-.18 1.288-.4 1.424-.22.136-.4.766-.4 1.4 0 .634-.18 1.264-.4 1.4-.538.332-.538 14.068 0 14.4.22.136.4.777.4 1.424 0 .647.18 1.176.4 1.176.22 0 .4.54.4 1.2 0 .66.18 1.2.4 1.2.22 0 .4.36.4.8 0 .44.18.8.4.8.22 0 .4.36.4.8 0 .44.18.8.4.8.22 0 .4.36.4.8 0 .44.18.8.4.8.22 0 .4.284.4.631 0 .348.675 1.293 1.5 2.1.825.808 1.745 1.944 2.044 2.525.299.581 1.019 1.301 1.6 1.6.581.299 1.717 1.219 2.525 2.044.807.825 1.752 1.5 2.1 1.5.347 0 .631.18.631.4 0 .22.36.4.8.4.44 0 .8.18.8.4 0 .22.36.4.8.4.44 0 .801.135.803.3.005.447 2.023 1.3 3.077 1.3.506 0 .92.18.92.4 0 .22.54.4 1.2.4.66 0 1.2.18 1.2.4 0 .253 2.8.4 7.6.4s7.6-.147 7.6-.4c0-.22.529-.4 1.176-.4.647 0 1.288-.18 1.424-.4.136-.22.67-.4 1.186-.4 1.041 0 4.214-1.562 4.214-2.074 0-.179.36-.326.8-.326.44 0 .8-.18.8-.4 0-.22.288-.4.64-.4.351 0 1.143-.54 1.76-1.2.617-.66 1.29-1.2 1.497-1.2.565 0 4.103-3.449 4.103-4 0-.263.54-.983 1.2-1.6.66-.617 1.2-1.409 1.2-1.76 0-.352.18-.64.4-.64.22 0 .4-.36.4-.8 0-.44.147-.8.326-.8.512 0 2.074-3.173 2.074-4.214 0-.516.18-1.05.4-1.186.22-.136.4-.777.4-1.424 0-.647.18-1.176.4-1.176.231 0 .4-1.268.4-3.005 0-1.699.216-3.351.496-3.8.395-.633.395-.957 0-1.59-.287-.46-.496-2.142-.496-4v-3.207l25.399-25.399c22.849-22.848 26.601-26.375 26.601-24.999 0 .22.36.4.8.4.44 0 .8.18.8.4 0 .22.36.4.8.4.44 0 .8.18.8.4 0 .22.36.4.8.4.44 0 .8.18.8.4 0 .22.36.4.8.4.44 0 .8.18.8.4 0 .22.54.4 1.2.4.66 0 1.2.18 1.2.4 0 .22.362.4.805.4.443 0 1.118.168 1.5.374.382.205 1.28.609 1.995.897l1.3.524v35.503c0 31.634-.067 35.502-.613 35.502-.338 0-1.227.614-1.978 1.364-.75.75-1.914 1.689-2.586 2.086-.673.397-1.223.935-1.223 1.196 0 .26-.9 1.392-2 2.515-1.1 1.124-2 2.312-2 2.641 0 .329-.18.598-.4.598-.22 0-.4.36-.4.8 0 .44-.18.8-.4.8-.22 0-.4.36-.4.8 0 .44-.18.8-.4.8-.22 0-.4.36-.4.8 0 .44-.18.8-.4.8-.22 0-.4.529-.4 1.176 0 .647-.18 1.288-.4 1.424-.22.136-.4.867-.4 1.624 0 .757-.18 1.376-.4 1.376-.541 0-.541 13.466 0 13.8.22.136.4.766.4 1.4 0 .634.18 1.264.4 1.4.22.136.4.777.4 1.424 0 .647.18 1.176.4 1.176.22 0 .4.36.4.8 0 .44.18.8.4.8.22 0 .4.36.4.8 0 .44.18.8.4.8.22 0 .4.36.4.8 0 .44.18.8.4.8.22 0 .4.238.4.529 0 .291.9 1.493 2 2.671 1.1 1.178 2 2.349 2 2.603s.495.717 1.1 1.029c.605.313 1.761 1.243 2.569 2.068.807.825 1.752 1.5 2.1 1.5.347 0 .631.18.631.4 0 .22.36.4.8.4.44 0 .8.18.8.4 0 .22.36.4.8.4.44 0 .8.18.8.4 0 .22.36.4.8.4.44 0 .8.18.8.4 0 .22.525.4 1.167.4.641 0 1.241.225 1.333.5.241.721 19.639.721 20.36 0 .275-.275 1.004-.5 1.62-.5.616 0 1.12-.18 1.12-.4 0-.22.236-.4.525-.4.288 0 .911-.36 1.383-.8.472-.44 1.136-.8 1.475-.8.339 0 .617-.18.617-.4 0-.22.288-.4.64-.4.351 0 1.143-.54 1.76-1.2.617-.66 1.323-1.2 1.571-1.2.586 0 4.029-3.443 4.029-4.029 0-.248.54-.954 1.2-1.571.66-.617 1.2-1.409 1.2-1.76 0-.352.152-.64.337-.64.186 0 .771-.855 1.3-1.9.53-1.045 1.098-1.96 1.263-2.033.165-.074.3-.648.3-1.277 0-.628.18-1.254.4-1.39.22-.136.4-.766.4-1.4 0-.634.18-1.264.4-1.4.22-.136.4-1.589.4-3.229 0-1.64.215-3.326.478-3.747.37-.593.37-1.001 0-1.813-.263-.577-.478-2.3-.478-3.83 0-1.587-.172-2.781-.4-2.781-.22 0-.4-.619-.4-1.376 0-.757-.18-1.488-.4-1.624-.22-.136-.4-.762-.4-1.39 0-.629-.142-1.203-.315-1.277-.173-.073-.807-1.15-1.41-2.394-.603-1.244-1.721-2.944-2.485-3.778-.765-.835-1.39-1.674-1.39-1.865 0-.506-3.813-4.14-5.209-4.965-.655-.387-1.191-.845-1.191-1.017 0-.173-.283-.314-.629-.314-1.819 0-1.771.981-1.771-36.171 0-34.762.006-35.029.8-35.029.44 0 .8-.18.8-.4 0-.22.54-.4 1.2-.4.66 0 1.2-.18 1.2-.4 0-.22.54-.4 1.2-.4.66 0 1.2-.18 1.2-.4 0-.22.54-.4 1.2-.4.66 0 1.2-.18 1.2-.4 0-.22.36-.4.8-.4.44 0 .8-.18.8-.4 0-.22.36-.4.8-.4.44 0 .8-.18.8-.4 0-.22.36-.4.8-.4.44 0 .8-.18.8-.4 0-2.19 2.445.043 27.769 25.368l25.768 25.767.009 6.925c.006 4.498.157 6.974.432 7.066.232.077.422.655.422 1.284 0 .628.18 1.254.4 1.39.22.136.4.743.4 1.348 0 .606.36 1.488.8 1.96.44.472.8 1.136.8 1.475 0 .339.18.617.4.617.22 0 .4.36.4.8 0 .44.18.8.4.8.22 0 .4.288.4.64 0 .351.54 1.143 1.2 1.76.66.617 1.2 1.305 1.2 1.529 0 .531 3.54 4.071 4.071 4.071.224 0 .912.54 1.529 1.2.617.66 1.409 1.2 1.76 1.2.352 0 .64.18.64.4 0 .22.36.4.8.4.44 0 .8.18.8.4 0 .22.225.404.5.409.275.005.95.361 1.5.791.55.43 1.585.786 2.3.791.715.005 1.3.189 1.3.409 0 .22.529.4 1.176.4.647 0 1.288.18 1.424.4.333.538 14.467.538 14.8 0 .136-.22.777-.4 1.424-.4.647 0 1.176-.18 1.176-.4 0-.22.414-.4.92-.4 1.054 0 3.072-.853 3.077-1.3.002-.165.363-.3.803-.3.44 0 .8-.18.8-.4 0-.22.36-.4.8-.4.44 0 .8-.18.8-.4 0-.22.284-.4.631-.4.348 0 1.323-.72 2.169-1.6.846-.88 1.74-1.6 1.987-1.6.583 0 2.413-1.83 2.413-2.413 0-.247.72-1.141 1.6-1.987.88-.846 1.6-1.821 1.6-2.169 0-.347.18-.631.4-.631.22 0 .4-.36.4-.8 0-.44.18-.8.4-.8.22 0 .4-.36.4-.8 0-.44.18-.8.4-.8.22 0 .4-.36.4-.8 0-.44.18-.8.4-.8.22 0 .4-.54.4-1.2 0-.66.18-1.2.4-1.2.22 0 .4-.529.4-1.176 0-.647.18-1.288.4-1.424.242-.149.4-2.996.4-7.2 0-4.204-.158-7.051-.4-7.2-.22-.136-.4-.867-.4-1.624 0-.757-.18-1.376-.4-1.376-.22 0-.4-.54-.4-1.2 0-.66-.18-1.2-.4-1.2-.22 0-.4-.36-.4-.8 0-.44-.18-.8-.4-.8-.22 0-.4-.36-.4-.8 0-.44-.18-.8-.4-.8-.22 0-.4-.36-.4-.8 0-.44-.18-.8-.4-.8-.22 0-.4-.284-.4-.631 0-.348-.72-1.323-1.6-2.169-.88-.846-1.6-1.752-1.6-2.015 0-.537-2.758-3.185-3.318-3.185-.198 0-.865-.54-1.482-1.2-.617-.66-1.409-1.2-1.76-1.2-.352 0-.64-.18-.64-.4 0-.22-.345-.4-.767-.4-.421 0-.826-.135-.9-.3-.248-.559-3.603-2.1-4.571-2.1-.529 0-.962-.18-.962-.4 0-.22-.54-.4-1.2-.4-.66 0-1.2-.18-1.2-.4 0-.253-2.8-.4-7.6-.4s-7.6.147-7.6.4c0 1.529-4.086-2.284-26.936-25.136-23.325-23.327-25.479-25.592-24.899-26.172.349-.349.635-.918.635-1.263 0-.346.18-.629.4-.629.22 0 .4-.272.4-.605 0-.588.167-1.013 1.138-2.89.254-.492.462-1.167.462-1.5 0-.333.18-.605.4-.605.22 0 .4-.54.4-1.2 0-.66.18-1.2.4-1.2.22 0 .4-.439.4-.976 0-.537.18-1.088.4-1.224.22-.136.4-.699.4-1.252 0-2.264-2.145-2.148 39.771-2.148 38.362 0 38.629.006 38.629.8 0 .44.18.8.4.8.22 0 .4.26.4.577 0 .73 7.026 7.83 8.5 8.591.605.312 1.1.717 1.1.9 0 .182.36.332.8.332.44 0 .8.18.8.4 0 .22.36.4.8.4.44 0 .8.18.8.4 0 .22.36.4.8.4.44 0 .8.18.8.4 0 .22.54.4 1.2.4.66 0 1.2.18 1.2.4 0 .22.529.4 1.176.4.647 0 1.288.18 1.424.4.333.539 14.867.539 15.2 0 .136-.22.766-.4 1.4-.4.634 0 1.264-.18 1.4-.4.136-.22.777-.4 1.424-.4.647 0 1.176-.18 1.176-.4 0-.22.36-.4.8-.4.44 0 .8-.18.8-.4 0-.22.236-.4.525-.4.288 0 .911-.36 1.383-.8.472-.44 1.096-.8 1.387-.8.291 0 .788-.36 1.105-.8.317-.44.786-.8 1.042-.8.596 0 5.758-4.997 5.758-5.573 0-.239.54-.999 1.2-1.69.66-.691 1.2-1.499 1.2-1.796 0-.298.18-.541.4-.541.22 0 .4-.36.4-.8 0-.44.18-.8.4-.8.22 0 .4-.36.4-.8 0-.44.18-.8.4-.8.22 0 .4-.414.4-.92s.225-1.145.5-1.42c.719-.719.719-21.001 0-21.72-.275-.275-.5-.914-.5-1.42 0-.506-.18-.92-.4-.92-.22 0-.4-.36-.4-.8 0-.44-.18-.8-.4-.8-.22 0-.4-.36-.4-.8 0-.44-.18-.8-.4-.8-.22 0-.4-.272-.4-.604 0-.332-.54-1.168-1.2-1.859-.66-.691-1.2-1.412-1.2-1.603 0-1.02-7.077-7.227-8.9-7.805-.385-.122-.7-.381-.7-.576 0-.194-.36-.353-.8-.353-.44 0-.8-.18-.8-.4 0-.22-.36-.4-.8-.4-.44 0-.8-.18-.8-.4 0-.22-.529-.4-1.176-.4-.647 0-1.288-.18-1.424-.4-.136-.22-.867-.4-1.624-.4-.757 0-1.376-.18-1.376-.4 0-.252-2.667-.4-7.2-.4s-7.2.148-7.2.4c0 .22-.72.4-1.6.4-.88 0-1.6.18-1.6.4 0 .22-.54.4-1.2.4-.66 0-1.2.18-1.2.4 0 .22-.36.4-.8.4-.44 0-.8.18-.8.4 0 .22-.36.4-.8.4-.44 0-.8.18-.8.4 0 .22-.36.4-.8.4-.44 0-.8.18-.8.4 0 .22-.282.4-.626.4-.344 0-1.469.864-2.5 1.921-1.031 1.056-2.189 2.04-2.574 2.187-.385.147-.7.467-.7.711 0 .244-.72 1.135-1.6 1.981-.88.846-1.6 1.744-1.6 1.997 0 1.631.711 1.603-40.171 1.603H262v-1.176c0-.647-.18-1.288-.4-1.424-.22-.136-.4-.687-.4-1.224 0-.537-.18-.976-.4-.976-.22 0-.4-.54-.4-1.2 0-.66-.18-1.2-.4-1.2-.22 0-.4-.272-.4-.605 0-.333-.18-.963-.4-1.4l-.8-1.59c-.22-.437-.4-1.067-.4-1.4 0-.333-.18-.605-.4-.605-.22 0-.4-.36-.4-.8 0-.44-.18-.8-.4-.8-1.376 0 2.151-3.752 24.999-26.601 23.929-23.928 25.481-25.399 26.8-25.399.771 0 1.401.18 1.401.4 0 .25 2.4.4 6.4.4s6.4-.15 6.4-.4c0-.22.619-.4 1.376-.4.757 0 1.488-.18 1.624-.4.136-.22.777-.4 1.424-.4.647 0 1.176-.18 1.176-.4 0-.22.36-.4.8-.4.44 0 .8-.18.8-.4 0-.22.36-.4.8-.4.44 0 .8-.18.8-.4 0-.22.36-.4.8-.4.44 0 .8-.18.8-.4 0-.22.248-.4.552-.4.303 0 1.253-.675 2.11-1.5.858-.825 2.03-1.745 2.605-2.044.575-.299 1.29-1.019 1.589-1.6.299-.581 1.219-1.717 2.044-2.525.825-.807 1.5-1.752 1.5-2.1 0-.347.18-.631.4-.631.22 0 .4-.36.4-.8 0-.44.18-.8.4-.8.22 0 .4-.36.4-.8 0-.44.18-.8.4-.8.22 0 .4-.36.4-.8 0-.44.18-.8.4-.8.22 0 .4-.54.4-1.2 0-.66.18-1.2.4-1.2.22 0 .4-.54.4-1.2 0-.66.18-1.2.4-1.2.234 0 .4-1.342.4-3.226 0-1.775.197-3.594.437-4.043.316-.591.316-.938 0-1.254-.241-.241-.437-1.827-.437-3.533 0-1.703-.18-3.208-.4-3.344-.22-.136-.4-.766-.4-1.4 0-.634-.18-1.264-.4-1.4-.22-.136-.4-.777-.4-1.424 0-.647-.18-1.176-.4-1.176-.22 0-.4-.36-.4-.8 0-.44-.18-.8-.4-.8-.22 0-.4-.36-.4-.8 0-.44-.18-.8-.4-.8-.22 0-.4-.272-.4-.604 0-.332-.54-1.168-1.2-1.859-.66-.691-1.2-1.423-1.2-1.627 0-.49-5.18-5.51-5.686-5.51-.216 0-.897-.54-1.514-1.2-.617-.66-1.409-1.2-1.76-1.2-.352 0-.64-.18-.64-.4 0-.22-.36-.4-.8-.4-.44 0-.8-.18-.8-.4 0-.22-.36-.4-.8-.4-.44 0-.8-.18-.8-.4 0-.22-.54-.4-1.2-.4-.66 0-1.2-.18-1.2-.4 0-.22-.54-.4-1.2-.4-.66 0-1.2-.18-1.2-.4 0-.233-1.325-.4-3.176-.4-1.747 0-3.288-.18-3.424-.4-.322-.52-3.278-.52-3.6 0-.136.22-1.497.4-3.024.4-1.584 0-2.776.172-2.776.4 0 .22-.72.4-1.6.4-.88 0-1.6.18-1.6.4 0 .22-.54.4-1.2.4-.66 0-1.2.18-1.2.4 0 .22-.36.4-.8.4-.44 0-.8.18-.8.4 0 .22-.36.4-.8.4-.44 0-.8.18-.8.4 0 .22-.248.4-.552.4-.303 0-1.293.72-2.2 1.6-.907.88-1.833 1.6-2.059 1.6-.557 0-3.989 3.466-3.989 4.029 0 .248-.54.954-1.2 1.571-.66.617-1.2 1.409-1.2 1.76 0 .352-.18.64-.4.64-.22 0-.4.36-.4.8 0 .44-.18.8-.4.8-.22 0-.4.278-.4.617 0 .339-.36 1.003-.8 1.475-.466.5-.8 1.412-.8 2.183 0 .729-.18 1.325-.4 1.325-.22 0-.4.529-.4 1.176 0 .647-.18 1.288-.4 1.424-.243.15-.4 3.071-.4 7.424v7.178l-25.875 25.874c-14.231 14.231-25.946 25.661-26.033 25.4-.087-.262-.504-.476-.925-.476-.422 0-.767-.18-.767-.4 0-.22-.36-.4-.8-.4-.44 0-.8-.18-.8-.4 0-.22-.36-.4-.8-.4-.44 0-.8-.18-.8-.4 0-.22-.349-.4-.776-.4-.427 0-.888-.18-1.024-.4-.136-.22-.687-.4-1.224-.4-.537 0-.976-.18-.976-.4 0-.22-.54-.4-1.2-.4-.66 0-1.2-.18-1.2-.4 0-.22-.585-.406-1.3-.413-2.936-.028-2.7 3.669-2.7-42.36 0-43.267-.032-42.427 1.603-42.427.253 0 1.121-.675 1.928-1.5.808-.825 1.944-1.745 2.525-2.044.581-.299 1.301-1.019 1.6-1.6.299-.581 1.219-1.717 2.044-2.525.825-.807 1.5-1.752 1.5-2.1 0-.347.18-.631.4-.631.22 0 .4-.36.4-.8 0-.44.18-.8.4-.8.22 0 .4-.36.4-.8 0-.44.18-.8.4-.8.22 0 .4-.36.4-.8 0-.44.18-.8.4-.8.22 0 .4-.54.4-1.2 0-.66.18-1.2.4-1.2.22 0 .4-.529.4-1.176 0-.647.18-1.288.4-1.424.242-.149.4-2.996.4-7.2 0-4.204-.158-7.051-.4-7.2-.22-.136-.4-.766-.4-1.4 0-.634-.18-1.264-.4-1.4-.22-.136-.4-.777-.4-1.424 0-.647-.18-1.176-.4-1.176-.22 0-.4-.36-.4-.8 0-.44-.18-.8-.4-.8-.22 0-.4-.36-.4-.8 0-.44-.18-.8-.4-.8-.22 0-.4-.36-.4-.8 0-.44-.18-.8-.4-.8-.22 0-.4-.284-.4-.631 0-.348-.72-1.323-1.6-2.169-.88-.846-1.6-1.686-1.6-1.869-.001-.506-1.839-2.531-2.298-2.531-.223 0-1.147-.72-2.054-1.6-.907-.88-1.919-1.6-2.248-1.6-.33 0-.6-.18-.6-.4 0-.22-.36-.4-.8-.4-.44 0-.8-.18-.8-.4 0-.22-.36-.4-.8-.4-.44 0-.801-.135-.803-.3-.005-.441-2.016-1.3-3.043-1.3-.488 0-.962-.225-1.054-.5-.167-.502-15.525-.857-18.6-.43m12.5 17.33c.136.22.687.4 1.224.4.537 0 .976.18.976.4 0 .22.36.4.8.4.44 0 .8.18.8.4 0 .22.241.4.536.4.776 0 4.264 3.404 4.264 4.16 0 .352.135.641.3.643.359.004 1.3 1.941 1.3 2.677 0 .286.18.52.4.52.22 0 .4.885.4 1.967 0 1.209.193 2.037.5 2.15.4.146.4.289 0 .713-.275.292-.5 1.304-.5 2.25s-.18 1.72-.4 1.72c-.22 0-.4.54-.4 1.2 0 .66-.15 1.2-.332 1.2-.183 0-.588.492-.9 1.094-.676 1.302-4.573 5.306-5.165 5.306-.227 0-.771.18-1.208.4l-1.59.8c-.437.22-1.427.4-2.2.4-.773 0-1.405.18-1.405.4 0 .22-.54.4-1.2.4-.66 0-1.2-.18-1.2-.4 0-.22-.72-.4-1.6-.4-.88 0-1.6-.18-1.6-.4 0-.22-.36-.4-.8-.4-.44 0-.8-.18-.8-.4 0-.22-.36-.4-.8-.4-.44 0-.8-.18-.8-.4 0-.22-.235-.4-.522-.4-.71 0-3.152-2.348-3.847-3.7-.312-.605-.716-1.1-.899-1.1-.182 0-.332-.36-.332-.8 0-.44-.18-.8-.4-.8-.22 0-.4-.439-.4-.976 0-.537-.18-1.088-.4-1.224-.22-.136-.4-1.857-.4-3.824 0-2.117.163-3.576.4-3.576.22 0 .4-.54.4-1.2 0-.66.18-1.2.4-1.2.22 0 .4-.272.4-.604 0-.332.54-1.168 1.2-1.859.66-.691 1.2-1.499 1.2-1.796 0-.298.243-.541.541-.541.297 0 1.105-.54 1.796-1.2.691-.66 1.527-1.2 1.859-1.2.332 0 .604-.18.604-.4 0-.22.54-.4 1.2-.4.66 0 1.2-.18 1.2-.4 0-.237 1.459-.4 3.576-.4 1.967 0 3.688.18 3.824.4M85.2 76c0 .22.9.4 2 .4s2 .18 2 .4c0 .22.36.4.8.4.44 0 .8.18.8.4 0 .22.273.4.607.4.334 0 1.774 1.167 3.2 2.593 1.426 1.426 2.593 2.866 2.593 3.2 0 .334.18.607.4.607.22 0 .4.349.4.776 0 .427.18.888.4 1.024.22.136.4.869.4 1.629s.223 1.739.496 2.176c.395.633.395.957 0 1.59-.273.437-.496 1.517-.496 2.4s-.18 1.605-.4 1.605c-.22 0-.4.36-.4.8 0 .44-.18.8-.4.8-.22 0-.4.32-.4.712 0 .391-.36.971-.8 1.288-.44.317-.8.82-.8 1.117 0 .594-.951 1.682-1.471 1.684-.181 0-.959.54-1.729 1.199-.77.659-1.625 1.199-1.9 1.199-.275.001-.5.181-.5.401 0 .22-.439.4-.976.4-.537 0-1.088.18-1.224.4-.136.22-1.857.4-3.824.4-2.117 0-3.576-.163-3.576-.4 0-.22-.5-.4-1.112-.4-.653 0-1.349-.33-1.688-.8-.317-.44-.819-.8-1.114-.8-.688 0-4.507-3.853-5.254-5.3-.312-.605-.717-1.1-.9-1.1-.182 0-.332-.54-.332-1.2 0-.66-.18-1.2-.4-1.2-.501 0-.54-6.939-.044-7.905.196-.382.781-1.594 1.3-2.693C71.882 82.032 75.61 78 76.591 78c.335 0 .609-.18.609-.4 0-.22.36-.4.8-.4.44 0 .8-.18.8-.4 0-.22.9-.4 2-.4s2-.18 2-.4c0-.22.54-.4 1.2-.4.66 0 1.2.18 1.2.4m232 0c0 .22.9.4 2 .4s2 .18 2 .4c0 .22.36.4.8.4.44 0 .8.18.8.4 0 .22.273.4.607.4.792 0 5.793 5.001 5.793 5.793 0 .334.18.607.4.607.22 0 .4.349.4.776 0 .427.18.888.4 1.024.22.136.4.869.4 1.629s.223 1.739.496 2.176c.395.633.395.957 0 1.59-.273.437-.496 1.517-.496 2.4s-.18 1.605-.4 1.605c-.22 0-.4.36-.4.8 0 .44-.18.8-.4.8-.22 0-.4.32-.4.712 0 .391-.36.971-.8 1.288-.44.317-.8.82-.8 1.117 0 .594-.951 1.682-1.471 1.684-.181 0-.959.54-1.729 1.199-.77.659-1.625 1.199-1.9 1.199-.275.001-.5.181-.5.401 0 .22-.439.4-.976.4-.537 0-1.088.18-1.224.4-.136.22-1.857.4-3.824.4-2.117 0-3.576-.163-3.576-.4 0-.22-.5-.4-1.112-.4-.653 0-1.349-.33-1.688-.8-.317-.44-.819-.8-1.114-.8-.688 0-4.507-3.853-5.254-5.3-.312-.605-.717-1.1-.9-1.1-.182 0-.332-.54-.332-1.2 0-.66-.18-1.2-.4-1.2-.501 0-.54-6.939-.044-7.905.196-.382.781-1.594 1.3-2.693 1.026-2.17 4.754-6.202 5.735-6.202.335 0 .609-.18.609-.4 0-.22.36-.4.8-.4.44 0 .8-.18.8-.4 0-.22.9-.4 2-.4s2-.18 2-.4c0-.22.54-.4 1.2-.4.66 0 1.2.18 1.2.4M202 175.2c0 .222 1.067.4 2.4.4s2.4.178 2.4.4c0 .22.54.4 1.2.4.66 0 1.2.18 1.2.4 0 .22.54.4 1.2.4.66 0 1.2.159 1.2.353 0 .195.315.454.7.576.936.296 3.066 1.595 3.233 1.971.074.165.479.3.9.3.422 0 .767.15.767.332 0 .183.495.588 1.1.9 1.334.689 6.1 5.475 6.1 6.126 0 .256.36.725.8 1.042.44.317.8.882.8 1.255 0 .373.135.738.3.812.432.192 2.1 3.505 2.1 4.171 0 .309.18.562.4.562.22 0 .4.54.4 1.2 0 .66.18 1.2.4 1.2.22 0 .4.619.4 1.376 0 .757.18 1.488.4 1.624.233.144.4 2.404.4 5.424 0 3.184-.154 5.176-.4 5.176-.22 0-.4.72-.4 1.6 0 .88-.18 1.6-.4 1.6-.22 0-.4.54-.4 1.2 0 .66-.18 1.2-.4 1.2-.22 0-.4.36-.4.8 0 .44-.18.8-.4.8-.22 0-.4.36-.4.8 0 .44-.18.8-.4.8-.22 0-.4.36-.4.8 0 .44-.18.8-.4.8-.22 0-.4.27-.4.6 0 .329-.72 1.341-1.6 2.248-.88.907-1.6 1.827-1.6 2.046 0 .48-2.806 3.106-3.318 3.106-.198 0-.865.54-1.482 1.2-.617.66-1.409 1.2-1.76 1.2-.352 0-.64.18-.64.4 0 .22-.36.4-.8.4-.44 0-.8.18-.8.4 0 .22-.36.4-.8.4-.44 0-.8.18-.8.4 0 .22-.36.4-.8.4-.44 0-.8.18-.8.4 0 .22-.54.4-1.2.4-.66 0-1.2.18-1.2.4 0 .22-.619.4-1.376.4-.757 0-1.488.18-1.624.4-.146.236-2.537.4-5.824.4-3.451 0-5.576-.152-5.576-.4 0-.22-.54-.4-1.2-.4-.66 0-1.2-.18-1.2-.4 0-.22-.72-.4-1.6-.4-.88 0-1.6-.18-1.6-.4 0-.22-.36-.4-.8-.4-.44 0-.8-.18-.8-.4 0-.22-.36-.4-.8-.4-.44 0-.8-.159-.8-.353 0-.195-.315-.454-.7-.576-1.169-.37-3.024-1.609-4.153-2.771-.587-.605-1.356-1.1-1.707-1.1-.352 0-.64-.248-.64-.552 0-.303-.675-1.253-1.5-2.11-.825-.858-1.755-2.049-2.068-2.649-.312-.599-.717-1.089-.9-1.089-.182 0-.332-.36-.332-.8 0-.44-.18-.8-.4-.8-.22 0-.4-.236-.4-.525 0-.288-.36-.911-.8-1.383-.44-.472-.8-1.305-.8-1.852 0-.546-.18-1.104-.4-1.24-.22-.136-.4-.766-.4-1.4 0-.634-.18-1.264-.4-1.4-.22-.136-.4-1.317-.4-2.624 0-1.317-.178-2.376-.4-2.376-.22 0-.4-.889-.4-1.976s.18-2.088.4-2.224c.22-.136.4-1.306.4-2.6s.18-2.464.4-2.6c.22-.136.4-.777.4-1.424 0-.647.18-1.176.4-1.176.22 0 .4-.54.4-1.2 0-.66.18-1.2.4-1.2.22 0 .4-.36.4-.8 0-.44.18-.8.4-.8.22 0 .4-.36.4-.8 0-.44.18-.8.4-.8.22 0 .4-.269.4-.598 0-.329.9-1.517 2-2.641 1.1-1.123 2-2.217 2-2.43 0-.498 1.027-1.531 1.523-1.531.209 0 1.122-.72 2.029-1.6.907-.88 1.919-1.6 2.248-1.6.33 0 .6-.18.6-.4 0-.22.36-.4.8-.4.44 0 .8-.18.8-.4 0-.22.36-.4.8-.4.44 0 .8-.18.8-.4 0-.22.36-.4.8-.4.44 0 .8-.18.8-.4 0-.22.439-.4.976-.4.537 0 1.088-.18 1.224-.4.136-.22.676-.4 1.2-.4.524 0 1.064-.18 1.2-.4.136-.22 1.317-.4 2.624-.4 1.317 0 2.376-.178 2.376-.4 0-.22.9-.4 2-.4s2 .18 2 .4m-168.8 16c0 .22.9.4 2 .4s2 .18 2 .4c0 .22.36.4.8.4.44 0 .8.18.8.4 0 .22.275.4.611.4.744 0 3.775 2.996 4.557 4.505.312.602.717 1.095.9 1.095.182 0 .332.36.332.8 0 .44.18.8.4.8.22 0 .4.54.4 1.2 0 .66.18 1.2.4 1.2.237 0 .4 1.467.4 3.6s-.163 3.6-.4 3.6c-.22 0-.4.54-.4 1.2 0 .66-.18 1.2-.4 1.2-.22 0-.4.272-.4.604 0 .332-.54 1.168-1.2 1.859-.66.691-1.2 1.499-1.2 1.796a.534.534 0 0 1-.525.541c-.288 0-.873.315-1.3.7-.426.385-1.27.955-1.875 1.268-.605.312-1.1.717-1.1.9 0 .182-.54.332-1.2.332-.66 0-1.2.18-1.2.4 0 .237-1.459.4-3.576.4-1.967 0-3.688-.18-3.824-.4-.136-.22-.687-.4-1.224-.4-.537 0-.976-.18-.976-.4 0-.22-.36-.4-.8-.4-.44 0-.8-.18-.8-.4 0-.22-.241-.4-.536-.4-1.413 0-5.864-5.645-5.864-7.438 0-.309-.18-.562-.4-.562-.22 0-.4-.799-.4-1.776s-.18-1.888-.4-2.024c-.52-.322-.52-1.8 0-1.8.22 0 .4-.709.4-1.576 0-.867.18-1.688.4-1.824.22-.136.4-.687.4-1.224 0-.537.18-.976.4-.976.22 0 .4-.273.4-.607 0-.792 5.001-5.793 5.793-5.793.334 0 .607-.18.607-.4 0-.22.36-.4.8-.4.44 0 .8-.18.8-.4 0-.22.9-.4 2-.4s2-.18 2-.4c0-.22.54-.4 1.2-.4.66 0 1.2.18 1.2.4m336 0c0 .22.9.4 2 .4s2 .18 2 .4c0 .22.36.4.8.4.44 0 .8.18.8.4 0 .22.273.4.607.4.792 0 5.793 5.001 5.793 5.793 0 .334.18.607.4.607.22 0 .4.439.4.976 0 .537.18 1.088.4 1.224.22.136.4.957.4 1.824 0 .867.18 1.576.4 1.576.22 0 .4.349.4.776 0 .427-.18.888-.4 1.024-.22.136-.4 1.047-.4 2.024 0 .977-.18 1.776-.4 1.776-.22 0-.4.234-.4.52 0 .736-.941 2.673-1.3 2.677-.165.002-.3.291-.3.643 0 .756-3.488 4.16-4.264 4.16-.295 0-.536.18-.536.4 0 .22-.36.4-.8.4-.44 0-.8.18-.8.4 0 .22-.439.4-.976.4-.537 0-1.088.18-1.224.4-.136.22-1.857.4-3.824.4-2.117 0-3.576-.163-3.576-.4 0-.22-.54-.4-1.2-.4-.66 0-1.2-.15-1.2-.332 0-.183-.495-.588-1.1-.9-.605-.313-1.449-.883-1.875-1.268-.427-.385-1.012-.7-1.3-.7a.534.534 0 0 1-.525-.541c0-.297-.54-1.105-1.2-1.796-.66-.691-1.2-1.527-1.2-1.859 0-.332-.18-.604-.4-.604-.22 0-.4-.54-.4-1.2 0-.66-.18-1.2-.4-1.2-.237 0-.4-1.459-.4-3.576 0-1.967.18-3.688.4-3.824.22-.136.4-.687.4-1.224 0-.537.18-.976.4-.976.22 0 .4-.36.4-.8 0-.44.15-.8.332-.8.183 0 .588-.493.9-1.095.782-1.509 3.813-4.505 4.557-4.505.336 0 .611-.18.611-.4 0-.22.36-.4.8-.4.44 0 .8-.18.8-.4 0-.22.9-.4 2-.4s2-.18 2-.4c0-.22.54-.4 1.2-.4.66 0 1.2.18 1.2.4m-281.6 116c0 .22.355.4.788.4.934 0 3.543 1.406 4.404 2.373.334.375.923.799 1.308.942.385.143.7.469.7.726 0 .256.316.756.703 1.112.386.356.957 1.142 1.267 1.747.311.605.715 1.1.898 1.1.182 0 .332.529.332 1.176 0 .647.18 1.288.4 1.424.22.136.4 1.767.4 3.624 0 1.984-.165 3.376-.4 3.376-.22 0-.4.54-.4 1.2 0 .66-.18 1.2-.4 1.2-.22 0-.4.272-.4.604 0 .332-.54 1.168-1.2 1.859-.66.691-1.2 1.422-1.2 1.625 0 .553-1.067 1.512-1.683 1.512-.297 0-.8.36-1.117.8-.317.44-.897.8-1.288.8-.392 0-.712.18-.712.4 0 .22-.36.4-.8.4-.44 0-.8.18-.8.4 0 .22-.72.4-1.6.4-.88 0-1.6.18-1.6.4 0 .22-.54.4-1.2.4-.66 0-1.2-.18-1.2-.4 0-.22-.9-.4-2-.4s-2-.18-2-.4c0-.22-.36-.4-.8-.4-.44 0-.8-.18-.8-.4 0-.22-.32-.4-.712-.4-.391 0-.971-.36-1.288-.8-.317-.44-.813-.8-1.101-.8-.288 0-.642-.315-.787-.7-.145-.385-.769-1.177-1.387-1.76-.619-.584-1.125-1.349-1.125-1.7 0-.352-.18-.64-.4-.64-.22 0-.4-.36-.4-.8 0-.44-.18-.8-.4-.8-.22 0-.4-.619-.4-1.376 0-.757-.18-1.488-.4-1.624-.22-.136-.4-.946-.4-1.8 0-.854.18-1.664.4-1.8.22-.136.4-.946.4-1.8 0-.854.18-1.664.4-1.8.22-.136.4-.597.4-1.024 0-.427.15-.776.332-.776.183 0 .588-.493.9-1.095.782-1.509 3.813-4.505 4.557-4.505.336 0 .611-.18.611-.4 0-.22.36-.4.8-.4.44 0 .8-.18.8-.4 0-.22.54-.4 1.2-.4.66 0 1.2-.18 1.2-.4 0-.237 1.467-.4 3.6-.4s3.6.163 3.6.4m232 0c0 .22.54.4 1.2.4.66 0 1.2.18 1.2.4 0 .22.36.4.8.4.44 0 .8.15.8.332 0 .183.495.588 1.1.9.605.313 1.46.928 1.9 1.368.44.44 1.055 1.295 1.368 1.9.312.605.717 1.1.9 1.1.182 0 .332.36.332.8 0 .44.18.8.4.8.22 0 .4.345.4.767 0 .421.187.829.415.905.563.187.567 8.467.005 8.655-.231.077-.42.359-.42.627 0 .709-.949 2.639-1.3 2.643-.165.002-.3.278-.3.614 0 1.85-7.089 6.589-9.856 6.589-.739 0-1.344.18-1.344.4 0 .22-.54.4-1.2.4-.66 0-1.2-.18-1.2-.4 0-.22-.72-.4-1.6-.4-.88 0-1.6-.18-1.6-.4 0-.22-.253-.4-.562-.4-1.793 0-7.438-4.451-7.438-5.864 0-.295-.18-.536-.4-.536-.22 0-.4-.36-.4-.8 0-.44-.18-.8-.4-.8-.22 0-.4-.36-.4-.8 0-.44-.18-.8-.4-.8-.24 0-.4-1.592-.4-3.976 0-2.22.177-4.086.4-4.224.22-.136.4-.687.4-1.224 0-.537.18-.976.4-.976.22 0 .4-.32.4-.712 0-.391.36-.971.8-1.288.44-.317.8-.831.8-1.142 0-.619 1.953-2.457 2.612-2.458.226 0 .671-.36.988-.8.317-.44.897-.8 1.288-.8.392 0 .712-.18.712-.4 0-.22.54-.4 1.2-.4.66 0 1.2-.18 1.2-.4 0-.237 1.467-.4 3.6-.4s3.6.163 3.6.4m-115.2 46.4c0 .22.253.4.562.4 1.796 0 7.438 4.392 7.438 5.789 0 .336.135.612.3.614.359.004 1.3 1.941 1.3 2.677 0 .286.18.52.4.52.22 0 .4.774.4 1.72s.216 1.936.48 2.2c.373.373.373.587 0 .96-.264.264-.48 1.254-.48 2.2 0 .946-.18 1.72-.4 1.72-.22 0-.4.54-.4 1.2 0 .66-.15 1.2-.332 1.2-.183 0-.588.492-.9 1.094-.773 1.488-4.612 5.306-5.336 5.306-.321 0-.696.18-.832.4-.136.22-.687.4-1.224.4-.537 0-.976.18-.976.4 0 .22-.885.4-1.967.4-1.182 0-2.059.199-2.2.5-.186.4-.28.4-.466 0-.141-.301-1.018-.5-2.2-.5-1.082 0-1.967-.18-1.967-.4 0-.22-.36-.4-.8-.4-.44 0-.8-.18-.8-.4 0-.22-.36-.4-.8-.4-.44 0-.8-.18-.8-.4 0-.22-.235-.4-.522-.4-.71 0-3.152-2.348-3.847-3.7-.312-.605-.716-1.1-.899-1.1-.182 0-.332-.36-.332-.8 0-.44-.18-.8-.4-.8-.22 0-.4-.439-.4-.976 0-.537-.18-1.088-.4-1.224-.22-.136-.4-1.846-.4-3.8 0-1.954.18-3.664.4-3.8.22-.136.4-.687.4-1.224 0-.537.18-.976.4-.976.22 0 .4-.272.4-.604 0-.332.54-1.168 1.2-1.859.66-.691 1.2-1.456 1.2-1.702 0-.245.72-.891 1.6-1.435.88-.544 1.6-1.126 1.6-1.294 0-.168.36-.306.8-.306.44 0 .8-.18.8-.4 0-.22.36-.4.8-.4.44 0 .8-.18.8-.4 0-.242 1.733-.4 4.4-.4 2.667 0 4.4.158 4.4.4" fill="#f49c0c" fill-rule="evenodd"/>
</svg>
